<svg xmlns="http://www.w3.org/2000/svg" xmlns:xlink="http://www.w3.org/1999/xlink" version="1.1" id="Layer_1" x="0px" y="0px" width="100%" viewBox="0 0 512 512" enable-background="new 0 0 512 512" xml:space="preserve">
<path fill="#FFA4BA" opacity="1.000000" stroke="none" d=" M408.000000,513.000000   C307.645782,513.000000 207.291550,513.000000 106.789673,512.684692   C101.659279,510.233185 96.443115,508.515137 91.735252,505.886627   C73.915344,495.937347 62.667862,480.504089 61.371971,460.398621   C59.844170,436.695099 61.108860,412.811584 61.590588,389.001709   C66.466171,388.627411 70.955048,388.522827 75.354591,387.841400   C93.801414,384.984283 112.415329,382.817932 130.595062,378.737000   C147.675171,374.902924 164.286301,368.979767 181.304321,363.995209   C181.504883,364.014648 181.904465,364.069214 181.988525,364.407837   C182.657333,365.752197 183.117844,366.860474 183.848633,367.745605   C186.790894,371.309326 186.477341,374.594208 183.921310,378.390747   C180.580948,383.352203 177.652634,388.612274 174.823044,393.891785   C169.760803,403.336975 175.509857,414.887146 185.985687,417.112366   C192.322250,418.458374 198.591888,420.188599 204.781937,422.101105   C206.141785,422.521271 207.610519,424.273438 208.042938,425.709229   C209.621902,430.951874 210.900375,436.294495 212.080170,441.646118   C215.188492,455.745819 226.859695,460.876099 239.263504,453.533569   C243.848175,450.819702 248.305267,447.798737 253.145462,445.649536   C255.337326,444.676270 258.718170,444.645203 260.868988,445.656097   C266.269226,448.194305 271.243103,451.627228 276.447327,454.597382   C286.545715,460.360657 298.312500,455.409210 300.916199,444.475128   C302.415314,438.179565 304.031555,431.899292 305.970642,425.730133   C306.446045,424.217621 308.182556,422.502808 309.700562,422.022217   C315.714050,420.118408 321.874390,418.680450 327.973816,417.045746   C339.757141,413.887726 344.355743,403.068146 338.380707,392.524414   C335.261536,387.020172 332.248077,381.444763 328.858521,376.110138   C327.353546,373.741516 327.536530,372.096130 328.959747,369.845978   C332.250549,364.643097 335.268860,359.266388 338.349701,353.932495   C344.185486,343.828827 340.183899,333.020630 329.133575,329.559448   C323.268860,327.722534 317.267914,326.299530 311.286469,324.864746   C308.125336,324.106445 306.111725,322.838776 305.392151,319.233704   C304.360596,314.065643 302.560089,309.051056 301.133057,303.710388   C301.220673,303.278809 301.263184,303.107727 301.689453,302.948059   C307.988403,301.318024 313.882141,299.593933 319.822632,298.049744   C344.441315,291.650360 369.388641,287.024139 394.754059,284.987061   C414.096405,283.433685 433.474030,282.319519 452.909515,281.472900   C452.988708,340.886353 453.049530,399.837067 452.889313,458.787140   C452.877258,463.229767 451.872528,467.881226 450.337250,472.072205   C443.068268,491.915344 429.822510,505.618225 408.913025,511.123230   C408.474365,511.238739 408.298462,512.352112 408.000000,513.000000  M385.063690,337.854553   C387.018616,337.635468 389.021942,337.617676 390.919739,337.161163   C397.772430,335.512756 402.642456,330.009552 402.996124,323.735840   C403.414368,316.316223 399.816589,310.454468 393.302856,307.942749   C386.623779,305.367279 379.798035,307.422363 375.122345,313.416504   C371.160248,318.495850 370.939117,325.909668 375.486847,331.416290   C377.692078,334.086517 381.318726,335.582825 385.063690,337.854553  M123.746925,446.601196   C125.679832,445.068634 127.867912,443.766022 129.496216,441.958984   C133.807205,437.174774 134.142502,429.829315 130.594727,424.363281   C126.860085,418.609375 119.967033,415.837311 113.780670,417.601471   C105.250282,420.034058 100.303619,428.405334 102.665802,436.411316   C105.348473,445.503510 113.524467,449.711700 123.746925,446.601196  M415.111816,446.459961   C419.115326,440.977448 419.298737,432.560791 415.514313,427.986938   C410.544220,421.979950 403.257233,419.992401 396.818359,423.093872   C390.691559,426.045044 387.608551,430.912598 387.938110,437.863190   C388.248596,444.410889 391.572357,449.003235 397.491577,451.132263   C403.828613,453.411499 409.956512,452.760956 415.111816,446.459961  z"/>
<path fill="#000000" opacity="1.000000" stroke="none" d=" M408.468658,513.000000   C408.298462,512.352112 408.474365,511.238739 408.913025,511.123230   C429.822510,505.618225 443.068268,491.915344 450.337250,472.072205   C451.872528,467.881226 452.877258,463.229767 452.889313,458.787140   C453.049530,399.837067 452.988708,340.886353 452.983398,281.009094   C453.020905,268.744232 453.058105,257.406036 453.477844,246.029419   C476.917572,238.515137 491.297363,223.490112 493.979340,198.845657   C495.817291,181.957336 496.452301,164.948135 492.924805,148.197937   C488.157410,125.560013 465.879089,107.138916 441.864502,107.023766   C410.244019,106.872147 378.622711,106.890190 347.126953,106.531113   C354.002533,99.371872 359.516846,91.762398 363.127808,82.705811   C367.159790,72.593330 364.509491,63.029305 352.691101,60.062321   C345.988708,58.379692 338.974121,57.940491 332.066040,56.525951   C334.519470,47.130222 334.505554,38.131844 331.598755,29.299389   C330.914795,27.221203 329.072784,25.330290 327.351929,23.823204   C321.974335,19.113604 315.430420,20.040768 309.688019,22.035275   C301.247284,24.966991 293.269135,29.230627 284.944214,32.592171   C279.697113,20.662117 274.143341,9.385009 263.469177,1.678816   C263.646118,1.452542 263.823059,1.226269 264.000000,0.999998   C346.958038,1.000000 429.916107,1.000000 512.937073,1.000000   C512.937073,171.666672 512.937073,342.333344 512.937073,513.000000   C478.235657,513.000000 443.586487,513.000000 408.468658,513.000000  z"/>
<path fill="#000000" opacity="1.000000" stroke="none" d=" M61.162796,389.006104   C61.108860,412.811584 59.844170,436.695099 61.371971,460.398621   C62.667862,480.504089 73.915344,495.937347 91.735252,505.886627   C96.443115,508.515137 101.659279,510.233185 106.321014,512.684692   C71.017685,513.000000 36.035374,513.000000 1.026530,513.000000   C1.026530,342.437256 1.026530,171.874527 1.026530,1.000000   C83.687302,1.000000 166.374985,1.000000 249.844376,1.266663   C246.097702,6.567117 241.051926,11.238378 237.195190,16.742748   C233.750305,21.659271 231.618195,27.495605 228.567871,32.845154   C219.756699,28.952154 211.489151,24.557249 202.755508,21.489237   C193.729935,18.318663 184.809677,22.209799 182.230988,29.557604   C179.061584,38.588539 179.910446,47.784519 181.452820,56.965660   C173.919632,57.893139 166.625076,58.014465 159.796143,59.859375   C146.419922,63.473110 144.215485,73.269325 149.672272,83.889069   C153.847580,92.014862 159.822281,99.216064 164.533325,106.902168   C134.406509,106.981224 104.742912,106.953072 75.079620,107.035866   C71.500626,107.045860 67.897888,107.485481 64.349289,108.015045   C38.453907,111.879501 19.902510,134.662491 19.047997,160.804626   C18.688858,171.791733 18.720064,182.809738 19.105101,193.795074   C19.285162,198.932358 20.078806,204.243210 21.711025,209.100128   C28.160854,228.292572 41.235325,240.759277 60.946484,246.550400   C60.990116,268.105255 60.974216,289.198578 61.002087,310.291840   C61.036758,336.529968 61.107586,362.768005 61.162796,389.006104  z"/>
<path fill="#FFEB99" opacity="1.000000" stroke="none" d=" M228.906799,32.926060   C231.618195,27.495605 233.750305,21.659271 237.195190,16.742748   C241.051926,11.238378 246.097702,6.567117 250.313034,1.266663   C254.356903,1.000000 258.713806,1.000000 263.535339,0.999998   C263.823059,1.226269 263.646118,1.452542 263.469177,1.678816   C274.143341,9.385009 279.697113,20.662117 284.925232,32.983994   C285.592255,35.616737 286.188629,37.508408 286.654999,39.431595   C289.731628,52.117943 293.287323,64.716309 295.682098,77.531105   C297.703827,88.349411 293.134277,97.987030 287.271057,107.118683   C266.637909,107.119156 246.455963,107.117836 226.160156,106.761703   C220.524582,97.828522 216.842773,88.609909 218.178436,78.252167   C219.192062,70.391632 220.802612,62.578953 222.639465,54.862072   C224.398651,47.471535 226.792099,40.231972 228.906799,32.926060  z"/>
<path fill="#FF809E" opacity="1.000000" stroke="none" d=" M61.590591,389.001709   C61.107586,362.768005 61.036758,336.529968 61.002087,310.291840   C60.974216,289.198578 60.990116,268.105255 61.377983,246.528122   C64.063896,246.361526 66.358368,246.954346 68.652977,246.954941   C107.792343,246.965225 146.931732,246.902145 186.534882,246.872711   C192.658646,246.926682 198.318802,247.012680 203.978577,246.992233   C287.017517,246.692444 370.056396,246.378479 453.095306,246.067871   C453.058105,257.406036 453.020905,268.744232 452.909851,280.546204   C433.474030,282.319519 414.096405,283.433685 394.754059,284.987061   C369.388641,287.024139 344.441315,291.650360 319.822632,298.049744   C313.882141,299.593933 307.988403,301.318024 301.584961,302.586731   C297.198273,289.587830 286.707367,285.442261 275.405731,292.062592   C270.966309,294.663147 266.373077,297.038788 262.135040,299.934235   C258.395416,302.489197 255.243851,302.115479 251.623291,299.773743   C246.749115,296.621124 241.722595,293.669250 236.585846,290.964783   C226.987854,285.911469 216.192795,290.501190 213.185242,300.828827   C211.339813,307.165833 209.903931,313.627594 207.883911,319.904541   C207.351746,321.558167 205.572678,323.470581 203.954010,323.997162   C197.826416,325.990570 191.525803,327.449860 185.296707,329.134064   C174.525742,332.046265 169.749573,342.720764 174.845139,352.646637   C176.814560,356.482971 179.010849,360.202850 181.103760,363.975769   C164.286301,368.979767 147.675171,374.902924 130.595062,378.737000   C112.415329,382.817932 93.801414,384.984283 75.354591,387.841400   C70.955048,388.522827 66.466171,388.627411 61.590591,389.001709  M131.206161,302.963348   C141.421646,298.669525 143.891953,283.372803 132.939362,276.105560   C127.109665,272.237457 118.775566,273.340088 113.683479,278.333038   C108.105461,283.802460 107.466881,290.764099 111.901077,297.764526   C115.755249,303.849213 122.747917,305.921387 131.206161,302.963348  z"/>
<path fill="#D7F3FF" opacity="1.000000" stroke="none" d=" M301.087891,303.970947   C302.560089,309.051056 304.360596,314.065643 305.392151,319.233704   C306.111725,322.838776 308.125336,324.106445 311.286469,324.864746   C317.267914,326.299530 323.268860,327.722534 329.133575,329.559448   C340.183899,333.020630 344.185486,343.828827 338.349701,353.932495   C335.268860,359.266388 332.250549,364.643097 328.959747,369.845978   C327.536530,372.096130 327.353546,373.741516 328.858521,376.110138   C332.248077,381.444763 335.261536,387.020172 338.380707,392.524414   C344.355743,403.068146 339.757141,413.887726 327.973816,417.045746   C321.874390,418.680450 315.714050,420.118408 309.700562,422.022217   C308.182556,422.502808 306.446045,424.217621 305.970642,425.730133   C304.031555,431.899292 302.415314,438.179565 300.916199,444.475128   C298.312500,455.409210 286.545715,460.360657 276.447327,454.597382   C271.243103,451.627228 266.269226,448.194305 260.868988,445.656097   C258.718170,444.645203 255.337326,444.676270 253.145462,445.649536   C248.305267,447.798737 243.848175,450.819702 239.263504,453.533569   C226.859695,460.876099 215.188492,455.745819 212.080170,441.646118   C210.900375,436.294495 209.621902,430.951874 208.042938,425.709229   C207.610519,424.273438 206.141785,422.521271 204.781937,422.101105   C198.591888,420.188599 192.322250,418.458374 185.985687,417.112366   C175.509857,414.887146 169.760803,403.336975 174.823044,393.891785   C177.652634,388.612274 180.580948,383.352203 183.921310,378.390747   C186.477341,374.594208 186.790894,371.309326 183.848633,367.745605   C183.117844,366.860474 182.657333,365.752197 182.324814,364.250610   C196.403198,357.508545 210.229385,351.262299 224.050110,345.427246   C224.095184,351.457367 226.118988,354.522003 230.174866,354.988281   C234.188934,355.449799 237.428360,354.330017 238.811676,350.155792   C240.201767,345.961151 238.591904,342.962677 234.078766,340.511536   C255.132477,325.645752 276.216492,311.309021 301.087891,303.970947  M241.888565,377.388519   C236.593063,382.689087 231.195953,387.892975 226.032196,393.318878   C221.385925,398.201111 222.382294,403.335297 228.421524,406.136353   C232.445312,408.002625 235.445328,405.652679 238.069595,403.064301   C247.552750,393.710785 256.941833,384.261810 266.356689,374.839172   C273.299957,367.890228 280.343414,361.036041 287.117920,353.925934   C290.918640,349.936920 291.186340,344.625214 288.279419,341.899017   C284.998810,338.822388 279.921448,339.378845 275.948578,343.339874   C264.747162,354.507965 253.573166,365.703552 241.888565,377.388519  M284.081635,391.035217   C280.404419,390.423920 277.076111,391.555267 275.869232,394.974335   C275.054230,397.283234 275.058380,401.108704 276.461029,402.661224   C278.201752,404.588013 281.933289,405.930237 284.487823,405.525146   C286.547272,405.198578 289.091949,402.163513 289.718140,399.865906   C290.759674,396.044464 288.676453,392.873688 284.081635,391.035217  z"/>
<path fill="#BDEBFF" opacity="1.000000" stroke="none" d=" M301.133057,303.710388   C276.216492,311.309021 255.132477,325.645752 233.722702,340.435974   C228.594742,338.690308 226.450348,342.119812 224.055557,345.016083   C210.229385,351.262299 196.403198,357.508545 182.240753,363.911987   C181.904465,364.069214 181.504883,364.014648 181.304321,363.995209   C179.010849,360.202850 176.814560,356.482971 174.845139,352.646637   C169.749573,342.720764 174.525742,332.046265 185.296707,329.134064   C191.525803,327.449860 197.826416,325.990570 203.954010,323.997162   C205.572678,323.470581 207.351746,321.558167 207.883911,319.904541   C209.903931,313.627594 211.339813,307.165833 213.185242,300.828827   C216.192795,290.501190 226.987854,285.911469 236.585846,290.964783   C241.722595,293.669250 246.749115,296.621124 251.623291,299.773743   C255.243851,302.115479 258.395416,302.489197 262.135040,299.934235   C266.373077,297.038788 270.966309,294.663147 275.405731,292.062592   C286.707367,285.442261 297.198273,289.587830 301.201233,302.575348   C301.263184,303.107727 301.220673,303.278809 301.133057,303.710388  z"/>
<path fill="#FFEA99" opacity="1.000000" stroke="none" d=" M384.682770,337.732544   C381.318726,335.582825 377.692078,334.086517 375.486847,331.416290   C370.939117,325.909668 371.160248,318.495850 375.122345,313.416504   C379.798035,307.422363 386.623779,305.367279 393.302856,307.942749   C399.816589,310.454468 403.414368,316.316223 402.996124,323.735840   C402.642456,330.009552 397.772430,335.512756 390.919739,337.161163   C389.021942,337.617676 387.018616,337.635468 384.682770,337.732544  z"/>
<path fill="#FFEA99" opacity="1.000000" stroke="none" d=" M123.379532,446.742401   C113.524467,449.711700 105.348473,445.503510 102.665802,436.411316   C100.303619,428.405334 105.250282,420.034058 113.780670,417.601471   C119.967033,415.837311 126.860085,418.609375 130.594727,424.363281   C134.142502,429.829315 133.807205,437.174774 129.496216,441.958984   C127.867912,443.766022 125.679832,445.068634 123.379532,446.742401  z"/>
<path fill="#FFEA99" opacity="1.000000" stroke="none" d=" M414.855164,446.732239   C409.956512,452.760956 403.828613,453.411499 397.491577,451.132263   C391.572357,449.003235 388.248596,444.410889 387.938110,437.863190   C387.608551,430.912598 390.691559,426.045044 396.818359,423.093872   C403.257233,419.992401 410.544220,421.979950 415.514313,427.986938   C419.298737,432.560791 419.115326,440.977448 414.855164,446.732239  z"/>
<path fill="#FFBDCD" opacity="1.000000" stroke="none" d=" M453.477844,246.029419   C370.056396,246.378479 287.017517,246.692444 203.978577,246.992233   C198.318802,247.012680 192.658646,246.926682 186.416794,246.545502   C184.992661,245.763168 184.188477,245.218323 183.302536,244.903687   C163.522507,237.878952 150.097137,224.806213 145.648819,203.931625   C144.177582,197.027573 144.063324,189.737045 144.113678,182.628769   C144.190079,171.843796 143.560776,160.775436 145.721878,150.343399   C149.822357,130.549728 162.158417,116.984047 181.546585,110.236397   C183.475174,109.565193 185.209366,108.335434 187.396362,107.291847   C188.497940,107.240288 189.236908,107.261787 190.241043,107.474655   C191.367371,107.752121 192.228561,107.838234 193.505493,107.953941   C195.584335,107.913254 197.247406,107.842979 199.327820,107.741974   C208.588089,107.513008 217.431061,107.314766 226.274017,107.116524   C246.455963,107.117836 266.637909,107.119156 287.769348,107.146393   C297.118164,107.140717 305.517487,107.109108 314.384521,107.173370   C325.568756,107.124603 336.285278,106.979942 347.001770,106.835289   C378.622711,106.890190 410.244019,106.872147 441.864502,107.023766   C465.879089,107.138916 488.157410,125.560013 492.924805,148.197937   C496.452301,164.948135 495.817291,181.957336 493.979340,198.845657   C491.297363,223.490112 476.917572,238.515137 453.477844,246.029419  z"/>
<path fill="#FFDE55" opacity="1.000000" stroke="none" d=" M313.916809,107.077499   C305.517487,107.109108 297.118164,107.140717 288.220581,107.144608   C293.134277,97.987030 297.703827,88.349411 295.682098,77.531105   C293.287323,64.716309 289.731628,52.117943 286.654999,39.431595   C286.188629,37.508408 285.592255,35.616737 285.074951,33.318668   C293.269135,29.230627 301.247284,24.966991 309.688019,22.035275   C315.430420,20.040768 321.974335,19.113604 327.351929,23.823204   C329.072784,25.330290 330.914795,27.221203 331.598755,29.299389   C334.505554,38.131844 334.519470,47.130222 331.898987,56.879845   C327.922424,74.885757 322.502075,91.553078 313.916809,107.077499  z"/>
<path fill="#FFCD00" opacity="1.000000" stroke="none" d=" M314.384521,107.173378   C322.502075,91.553078 327.922424,74.885757 331.933105,57.295181   C338.974121,57.940491 345.988708,58.379692 352.691101,60.062321   C364.509491,63.029305 367.159790,72.593330 363.127808,82.705811   C359.516846,91.762398 354.002533,99.371872 347.126953,106.531113   C336.285278,106.979942 325.568756,107.124603 314.384521,107.173378  z"/>
<path fill="#FFA4BA" opacity="1.000000" stroke="none" d=" M187.033768,107.364899   C185.209366,108.335434 183.475174,109.565193 181.546585,110.236397   C162.158417,116.984047 149.822357,130.549728 145.721878,150.343399   C143.560776,160.775436 144.190079,171.843796 144.113678,182.628769   C144.063324,189.737045 144.177582,197.027573 145.648819,203.931625   C150.097137,224.806213 163.522507,237.878952 183.302536,244.903687   C184.188477,245.218323 184.992661,245.763168 185.953033,246.528015   C146.931732,246.902145 107.792343,246.965225 68.652977,246.954941   C66.358368,246.954346 64.063896,246.361526 61.337868,246.066574   C41.235325,240.759277 28.160854,228.292572 21.711025,209.100128   C20.078806,204.243210 19.285162,198.932358 19.105101,193.795074   C18.720064,182.809738 18.688858,171.791733 19.047997,160.804626   C19.902510,134.662491 38.453907,111.879501 64.349289,108.015045   C67.897888,107.485481 71.500626,107.045860 75.079620,107.035866   C104.742912,106.953072 134.406509,106.981224 164.995224,106.983154   C172.958206,107.115288 179.995987,107.240089 187.033768,107.364899  z"/>
<path fill="#FFDE55" opacity="1.000000" stroke="none" d=" M226.160156,106.761703   C217.431061,107.314766 208.588089,107.513008 199.369431,107.367386   C197.041809,102.317574 194.786728,97.711433 193.197815,92.885941   C189.269958,80.957001 185.647232,68.927597 181.901886,56.938560   C179.910446,47.784519 179.061584,38.588539 182.230988,29.557604   C184.809677,22.209799 193.729935,18.318663 202.755508,21.489237   C211.489151,24.557249 219.756699,28.952154 228.567871,32.845154   C226.792099,40.231972 224.398651,47.471535 222.639465,54.862072   C220.802612,62.578953 219.192062,70.391632 218.178436,78.252167   C216.842773,88.609909 220.524582,97.828522 226.160156,106.761703  z"/>
<path fill="#FFCD00" opacity="1.000000" stroke="none" d=" M181.452805,56.965660   C185.647232,68.927597 189.269958,80.957001 193.197815,92.885941   C194.786728,97.711433 197.041809,102.317574 198.952118,107.398117   C197.247406,107.842979 195.584335,107.913254 193.282196,107.693588   C191.754074,107.363525 190.864975,107.323402 189.975891,107.283295   C189.236908,107.261787 188.497940,107.240288 187.396362,107.291840   C179.995987,107.240089 172.958206,107.115288 165.458527,106.909500   C159.822281,99.216064 153.847580,92.014862 149.672272,83.889069   C144.215485,73.269325 146.419922,63.473110 159.796143,59.859375   C166.625076,58.014465 173.919632,57.893139 181.452805,56.965660  z"/>
<path fill="#FFEA99" opacity="1.000000" stroke="none" d=" M130.856995,303.120819   C122.747917,305.921387 115.755249,303.849213 111.901077,297.764526   C107.466881,290.764099 108.105461,283.802460 113.683479,278.333038   C118.775566,273.340088 127.109665,272.237457 132.939362,276.105560   C143.891953,283.372803 141.421646,298.669525 130.856995,303.120819  z"/>
<path fill="#FE82A0" opacity="1.000000" stroke="none" d=" M242.138474,377.138428   C253.573166,365.703552 264.747162,354.507965 275.948578,343.339874   C279.921448,339.378845 284.998810,338.822388 288.279419,341.899017   C291.186340,344.625214 290.918640,349.936920 287.117920,353.925934   C280.343414,361.036041 273.299957,367.890228 266.356689,374.839172   C256.941833,384.261810 247.552750,393.710785 238.069595,403.064301   C235.445328,405.652679 232.445312,408.002625 228.421524,406.136353   C222.382294,403.335297 221.385925,398.201111 226.032196,393.318878   C231.195953,387.892975 236.593063,382.689087 242.138474,377.138428  z"/>
<path fill="#FE82A0" opacity="1.000000" stroke="none" d=" M284.472290,391.117157   C288.676453,392.873688 290.759674,396.044464 289.718140,399.865906   C289.091949,402.163513 286.547272,405.198578 284.487823,405.525146   C281.933289,405.930237 278.201752,404.588013 276.461029,402.661224   C275.058380,401.108704 275.054230,397.283234 275.869232,394.974335   C277.076111,391.555267 280.404419,390.423920 284.472290,391.117157  z"/>
<path fill="#FE82A0" opacity="1.000000" stroke="none" d=" M224.050110,345.427246   C226.450348,342.119812 228.594742,338.690308 233.640930,340.758026   C238.591904,342.962677 240.201767,345.961151 238.811676,350.155792   C237.428360,354.330017 234.188934,355.449799 230.174866,354.988281   C226.118988,354.522003 224.095184,351.457367 224.050110,345.427246  z"/>
<path fill="#FFB396" opacity="1.000000" stroke="none" d=" M190.241043,107.474648   C190.864975,107.323402 191.754074,107.363525 192.866455,107.664001   C192.228561,107.838234 191.367371,107.752121 190.241043,107.474648  z"/>
</svg>